<svg width="416" height="416" viewBox="0 0 416 416" fill="none" xmlns="http://www.w3.org/2000/svg">
<rect width="416" height="416" fill="#000000"/>
<circle cx="208" cy="208" r="202" fill="#2A2A2A"/>
<circle cx="208" cy="208" r="198" fill="#1C1C1C"/>
<circle cx="208" cy="208" r="193" fill="#0B0B0B"/>
<circle cx="208" cy="208" r="187" fill="#000000"/>
<circle cx="208" cy="208" r="186" stroke="#3D3D3D" stroke-width="2"/>
<circle cx="208" cy="208" r="178" stroke="#111111" stroke-width="12"/>
<path d="M53 83C92 44 149 23 208 23C266 23 323 44 362 82L356 88C318 52 266 33 208 33C150 33 97 52 59 89L53 83Z" fill="#3A3A3A"/>
<path d="M77 340C109 368 157 384 208 384C258 384 307 368 338 341L344 347C311 377 261 394 208 394C155 394 104 377 71 346L77 340Z" fill="#151515"/>
<path d="M90 63L126 50L150 43L175 39L208 36L241 39L267 43L291 50L326 63" stroke="#575757" stroke-width="2" stroke-linecap="round"/>
<path d="M110 360L142 374L175 381L208 384L241 381L274 374L306 360" stroke="#282828" stroke-width="2" stroke-linecap="round"/>

<rect x="203" y="28" width="10" height="12" rx="1" fill="#D8D8D8"/>
<rect x="203" y="376" width="10" height="12" rx="1" fill="#D8D8D8"/>
<rect x="29" y="203" width="12" height="10" rx="1" fill="#D8D8D8"/>
<rect x="375" y="203" width="12" height="10" rx="1" fill="#D8D8D8"/>
<rect x="100.5" y="55" width="8" height="14" rx="1" transform="rotate(-30 100.5 55)" fill="#D8D8D8"/>
<rect x="307.5" y="347" width="8" height="14" rx="1" transform="rotate(-30 307.5 347)" fill="#D8D8D8"/>
<rect x="55" y="108.5" width="14" height="8" rx="1" transform="rotate(-60 55 108.5)" fill="#D8D8D8"/>
<rect x="347" y="315.5" width="14" height="8" rx="1" transform="rotate(-60 347 315.5)" fill="#D8D8D8"/>
<rect x="55" y="307.5" width="14" height="8" rx="1" transform="rotate(60 55 307.5)" fill="#D8D8D8"/>
<rect x="347" y="100.5" width="14" height="8" rx="1" transform="rotate(60 347 100.5)" fill="#D8D8D8"/>
<rect x="100.5" y="360" width="8" height="14" rx="1" transform="rotate(30 100.5 360)" fill="#D8D8D8"/>
<rect x="307.5" y="68" width="8" height="14" rx="1" transform="rotate(30 307.5 68)" fill="#D8D8D8"/>

<path d="M333 88L350 96" stroke="#C30000" stroke-width="7" stroke-linecap="round"/>
<path d="M321 77L339 83" stroke="#C30000" stroke-width="7" stroke-linecap="round"/>
<path d="M307 68L325 73" stroke="#C30000" stroke-width="7" stroke-linecap="round"/>
<path d="M292 61L310 64" stroke="#C30000" stroke-width="7" stroke-linecap="round"/>
<path d="M276 56L294 58" stroke="#C30000" stroke-width="7" stroke-linecap="round"/>
<path d="M259 52L278 53" stroke="#C30000" stroke-width="7" stroke-linecap="round"/>
<path d="M241 50L260 50" stroke="#C30000" stroke-width="7" stroke-linecap="round"/>
<path d="M224 50L243 50" stroke="#C30000" stroke-width="7" stroke-linecap="round"/>
<path d="M207 49L226 49" stroke="#C30000" stroke-width="7" stroke-linecap="round"/>
<path d="M294 348L312 353" stroke="#C30000" stroke-width="7" stroke-linecap="round"/>
<path d="M279 354L297 358" stroke="#C30000" stroke-width="7" stroke-linecap="round"/>
<path d="M263 359L281 362" stroke="#C30000" stroke-width="7" stroke-linecap="round"/>
<path d="M247 363L265 365" stroke="#C30000" stroke-width="7" stroke-linecap="round"/>
<path d="M231 366L248 367" stroke="#C30000" stroke-width="7" stroke-linecap="round"/>
<path d="M214 367L230 367" stroke="#C30000" stroke-width="7" stroke-linecap="round"/>

<path d="M90 278C132 278 178 277 228 277C269 277 301 278 325 280L325 334C301 343 262 348 208 348C154 348 115 344 91 334L90 278Z" fill="#031A2B"/>
<path d="M95 277C132 276 177 276 230 276C264 276 295 276 320 277L315 285C288 284 258 284 228 284C173 284 128 285 96 286L95 277Z" fill="#C8D7E0"/>
<path d="M90 285C132 285 178 284 228 284C269 284 301 285 325 287L325 333C301 342 262 346 208 346C154 346 115 342 91 333L90 285Z" fill="#00111C"/>

<circle cx="303" cy="120" r="33" fill="#5A5A5A"/>
<circle cx="303" cy="120" r="30" fill="#D6D6D6"/>
<circle cx="303" cy="120" r="27" fill="#E30E0E"/>
<circle cx="303" cy="120" r="22" fill="#070707"/>
<circle cx="293" cy="106" r="7" fill="#262626"/>
<ellipse cx="297" cy="110" rx="4" ry="7" fill="#D9D9D9"/>
<ellipse cx="310" cy="107" rx="4" ry="7" fill="#D9D9D9"/>
<ellipse cx="304" cy="119" rx="3" ry="4" fill="#D9D9D9"/>
<ellipse cx="297" cy="123" rx="2.5" ry="3.5" fill="#D9D9D9"/>
<ellipse cx="310" cy="123" rx="2.5" ry="3.5" fill="#D9D9D9"/>

<circle cx="320" cy="193" r="34" fill="#575757"/>
<circle cx="320" cy="193" r="31" fill="#D6D6D6"/>
<circle cx="320" cy="193" r="27" fill="#E30E0E"/>
<circle cx="320" cy="193" r="22" fill="#070707"/>
<circle cx="309" cy="178" r="7" fill="#252525"/>
<path d="M309 179C312 171 319 166 327 166C335 166 342 171 344 179" stroke="#D9D9D9" stroke-width="4" stroke-linecap="round"/>
<path d="M314 186C317 181 323 178 329 178C334 178 339 181 342 186" stroke="#D9D9D9" stroke-width="4" stroke-linecap="round"/>
<circle cx="328" cy="179" r="4" fill="#D9D9D9"/>

<circle cx="309" cy="279" r="34" fill="#575757"/>
<circle cx="309" cy="279" r="31" fill="#D6D6D6"/>
<circle cx="309" cy="279" r="27" fill="#E30E0E"/>
<circle cx="309" cy="279" r="22" fill="#070707"/>
<circle cx="298" cy="264" r="7" fill="#252525"/>
<circle cx="301" cy="275" r="9" fill="#D9D9D9"/>
<circle cx="317" cy="275" r="9" fill="#D9D9D9"/>
<path d="M292 278H326L309 298L292 278Z" fill="#D9D9D9"/>

<path d="M79 83C117 49 162 32 208 29" stroke="#4A4A4A" stroke-width="2" stroke-linecap="round"/>
<path d="M337 83C299 49 254 32 208 29" stroke="#161616" stroke-width="2" stroke-linecap="round"/>
</svg>
